# 3ds Max Wavefront OBJ Exporter v0.97b - (c)2007 guruware
# File Created: 05.05.2016 19:02:58

mtllib ShippingCrate_SimpleCube.mtl

#
# object ShippingCrate_A_LowPoly
#

v  -6.003400 0.000000 6.003400
v  -6.003400 0.000000 -6.003400
v  6.003400 0.000000 -6.003400
v  6.003400 0.000000 6.003400
v  -6.003400 12.000000 6.003400
v  6.003400 12.000000 6.003400
v  6.003400 12.000000 -6.003400
v  -6.003400 12.000000 -6.003400
# 8 vertices

vn 0.000000 -1.000000 -0.000000
vn 0.000000 1.000000 -0.000000
vn 0.000000 0.000000 1.000000
vn 1.000000 0.000000 -0.000000
vn 0.000000 0.000000 -1.000000
vn -1.000000 0.000000 -0.000000
# 6 vertex normals

vt 0.509700 0.995300 0.000000
vt 0.509700 0.508000 0.000000
vt 0.997000 0.508000 0.000000
vt 0.997000 0.995300 0.000000
vt 0.004400 0.508000 0.000000
vt 0.491700 0.508000 0.000000
vt 0.491700 0.995300 0.000000
vt 0.004400 0.995300 0.000000
vt 0.509700 0.003500 0.000000
vt 0.997000 0.003500 0.000000
vt 0.997000 0.490800 0.000000
vt 0.509700 0.490800 0.000000
vt 1.004400 0.003500 0.000000
vt 1.491700 0.003500 0.000000
vt 1.491700 0.490800 0.000000
vt 1.004400 0.490800 0.000000
vt 1.509700 0.003500 0.000000
vt 1.997000 0.003500 0.000000
vt 1.997000 0.490800 0.000000
vt 1.509700 0.490800 0.000000
vt 0.004400 0.003500 0.000000
vt 0.491700 0.003500 0.000000
vt 0.491700 0.490800 0.000000
vt 0.004400 0.490800 0.000000
# 24 texture coords

g ShippingCrate_A_LowPoly
usemtl _ShippingCrate_SimpleCube01___Default
f 1/1/1 2/2/1 3/3/1
f 3/3/1 4/4/1 1/1/1 
f 5/5/2 6/6/2 7/7/2
f 7/7/2 8/8/2 5/5/2 
f 1/9/3 4/10/3 6/11/3
f 6/11/3 5/12/3 1/9/3 
f 4/13/4 3/14/4 7/15/4
f 7/15/4 6/16/4 4/13/4 
f 3/17/5 2/18/5 8/19/5
f 8/19/5 7/20/5 3/17/5 
f 2/21/6 1/22/6 5/23/6
f 5/23/6 8/24/6 2/21/6 
# 12 faces

